<svg viewBox="0 0 283 313" xmlns="http://www.w3.org/2000/svg"><path d="M108.256 113.42C95.914 103.62 88 88.484 88 71.5 88 41.953 111.953 18 141.5 18S195 41.953 195 71.5c0 25.419-17.727 46.697-41.492 52.147v71.072c23.21 15.222 30.39 27.648 20.176 75.25 32.294-28.331 35.699-61.343 10.214-99.035v-27.59c37.747-27.559 55.606-87.465 15.172-132.102C213.755 4.521 241.626.773 282.684 0v264.48c-71.058 7.14-118.045 22.876-140.961 47.206v1.146a70.713 70.713 0 0 0-.532-.575l-.191.208-.001-.413c-22.918-24.33-69.904-40.064-140.96-47.204V.368c41.057.773 68.928 4.52 83.613 11.241C43.22 56.246 61.078 116.152 98.824 143.711v27.59c-25.484 37.692-22.08 70.704 10.215 99.035-10.215-47.602-3.035-60.027 20.176-75.25v-71.188c-8.226-2.094-15.212-5.587-20.959-10.478zM141 91c11.046 0 20-8.954 20-20s-8.954-20-20-20-20 8.954-20 20 8.954 20 20 20z" fill="#000" fill-rule="evenodd"/></svg>
