<?xml version="1.0" standalone="no"?>
<!DOCTYPE svg PUBLIC "-//W3C//DTD SVG 20010904//EN"
 "http://www.w3.org/TR/2001/REC-SVG-20010904/DTD/svg10.dtd">
<svg version="1.0" xmlns="http://www.w3.org/2000/svg"
 width="256.000000pt" height="256.000000pt" viewBox="0 0 256.000000 256.000000"
 preserveAspectRatio="xMidYMid meet">
<metadata>
Created by potrace 1.15, written by Peter Selinger 2001-2017
</metadata>
<g transform="translate(0.000000,256.000000) scale(0.100000,-0.100000)"
fill="#000000" stroke="none">
<path d="M0 1280 l0 -1280 1280 0 1280 0 0 1280 0 1280 -1280 0 -1280 0 0
-1280z m1226 661 c17 -10 36 -32 42 -47 12 -32 162 -967 162 -1012 0 -31 -22
-67 -50 -82 -10 -6 -145 -30 -300 -55 -257 -41 -283 -44 -314 -31 -19 8 -40
24 -46 36 -6 11 -48 249 -92 527 -78 487 -80 507 -64 539 9 19 26 39 38 45 21
9 524 95 573 98 11 0 34 -8 51 -18z m315 -89 c161 -19 193 -32 207 -84 10 -38
-99 -1022 -117 -1056 -6 -12 -25 -29 -42 -37 -27 -15 -46 -14 -217 5 -103 11
-191 22 -197 24 -5 2 13 7 40 11 123 18 189 35 213 57 34 32 52 71 52 113 0
19 -34 246 -75 504 -41 257 -75 471 -75 475 0 10 53 7 211 -12z m482 -253 c17
-18 27 -40 27 -59 0 -32 -262 -867 -282 -899 -19 -31 -61 -44 -113 -37 -25 4
-45 10 -45 13 0 3 11 14 25 25 51 40 55 63 111 552 29 259 54 476 54 482 0 8
35 1 98 -18 72 -22 104 -37 125 -59z"/>
</g>
</svg>
